<svg width="21" height="21" viewBox="0 0 24 24" fill="none" xmlns="http://www.w3.org/2000/svg">
<g clip-path="url(#clip0_125_111)">
<path d="M11.3942 0.352728C10.8897 -0.11485 10.1104 -0.11485 9.60998 0.352728L0.422482 8.88398C0.0287318 9.25312 -0.102518 9.82324 0.0943568 10.3236C0.291232 10.824 0.771115 11.1562 1.31252 11.1562H1.96877V18.375C1.96877 19.8228 3.14592 21 4.59377 21H16.4063C17.8541 21 19.0313 19.8228 19.0313 18.375V11.1562H19.6875C20.2289 11.1562 20.7129 10.824 20.9098 10.3236C21.1067 9.82324 20.9754 9.24902 20.5817 8.88398L11.3942 0.352728ZM9.84377 13.125H11.1563C12.2432 13.125 13.125 14.0068 13.125 15.0937V19.0312H7.87502V15.0937C7.87502 14.0068 8.75686 13.125 9.84377 13.125Z" fill="white"/>
</g>
<defs>
<clipPath id="clip0_125_111">
<rect width="21" height="21" fill="white"/>
</clipPath>
</defs>
</svg>
