<svg width="20" height="14" viewBox="0 0 20 14" fill="none" xmlns="http://www.w3.org/2000/svg">
<path d="M2.29998 0.399994C1.08654 0.399994 0.0999756 1.38656 0.0999756 2.59999V4.79999C0.0999756 5.10249 0.354351 5.33968 0.639663 5.43937C1.28591 5.66281 1.74998 6.27812 1.74998 6.99999C1.74998 7.72187 1.28591 8.33718 0.639663 8.56062C0.354351 8.66031 0.0999756 8.89749 0.0999756 9.19999V11.4C0.0999756 12.6134 1.08654 13.6 2.29998 13.6H17.7C18.9134 13.6 19.9 12.6134 19.9 11.4V9.19999C19.9 8.89749 19.6456 8.66031 19.3603 8.56062C18.714 8.33718 18.25 7.72187 18.25 6.99999C18.25 6.27812 18.714 5.66281 19.3603 5.43937C19.6456 5.33968 19.9 5.10249 19.9 4.79999V2.59999C19.9 1.38656 18.9134 0.399994 17.7 0.399994H2.29998ZM14.4 9.74999V4.24999H5.59998V9.74999H14.4ZM3.94998 3.69999C3.94998 3.09156 4.44154 2.59999 5.04998 2.59999H14.95C15.5584 2.59999 16.05 3.09156 16.05 3.69999V10.3C16.05 10.9084 15.5584 11.4 14.95 11.4H5.04998C4.44154 11.4 3.94998 10.9084 3.94998 10.3V3.69999Z" fill="white"/>
</svg>
