<svg width="18" height="16" viewBox="0 0 18 16" fill="none" xmlns="http://www.w3.org/2000/svg">
<path d="M17.5594 8.58438C17.8825 8.26125 17.8825 7.73875 17.5594 7.41907L12.6094 2.46563C12.3722 2.22844 12.0181 2.15969 11.7088 2.28688C11.3994 2.41407 11.2 2.71657 11.2 3.05V5.8H7.35001C6.43907 5.8 5.70001 6.53907 5.70001 7.45V8.55C5.70001 9.46094 6.43907 10.2 7.35001 10.2H11.2V12.95C11.2 13.2834 11.3994 13.5859 11.7088 13.7131C12.0181 13.8403 12.3722 13.7716 12.6094 13.5344L17.5594 8.58438ZM5.70001 2.5C6.30845 2.5 6.80001 2.00844 6.80001 1.4C6.80001 0.791566 6.30845 0.300003 5.70001 0.300003H3.50001C1.67814 0.300003 0.200012 1.77813 0.200012 3.6V12.4C0.200012 14.2219 1.67814 15.7 3.50001 15.7H5.70001C6.30845 15.7 6.80001 15.2084 6.80001 14.6C6.80001 13.9916 6.30845 13.5 5.70001 13.5H3.50001C2.89157 13.5 2.40001 13.0084 2.40001 12.4V3.6C2.40001 2.99157 2.89157 2.5 3.50001 2.5H5.70001Z" fill="white"/>
</svg>
