<svg width="17" height="17" viewBox="0 0 17 17" fill="none" xmlns="http://www.w3.org/2000/svg">
<path d="M13.75 6.92501C13.75 8.4311 13.2611 9.82235 12.4375 10.9511L16.5915 15.1084C17.0017 15.5186 17.0017 16.1847 16.5915 16.5949C16.1814 17.005 15.5153 17.005 15.1051 16.5949L10.9511 12.4375C9.82232 13.2611 8.43107 13.75 6.92498 13.75C3.15482 13.75 0.0999756 10.6952 0.0999756 6.92501C0.0999756 3.15485 3.15482 0.100006 6.92498 0.100006C10.6951 0.100006 13.75 3.15485 13.75 6.92501ZM6.92498 11.65C9.53357 11.65 11.65 9.5336 11.65 6.92501C11.65 4.31641 9.53357 2.20001 6.92498 2.20001C4.31638 2.20001 2.19998 4.31641 2.19998 6.92501C2.19998 9.5336 4.31638 11.65 6.92498 11.65Z" fill="white"/>
</svg>
