<svg width="18" height="17" viewBox="0 0 18 17" fill="none" xmlns="http://www.w3.org/2000/svg">
<path d="M15.8631 7.975H10.0881C9.50732 7.975 9.0381 7.50578 9.0381 6.925V1.15C9.0381 0.569222 9.5106 0.0934405 10.0848 0.168909C13.5958 0.634847 16.3783 3.41735 16.8442 6.92829C16.9197 7.5025 16.4439 7.975 15.8631 7.975ZM6.35404 1.32063C6.94794 1.19594 7.4631 1.68157 7.4631 2.2886V8.7625C7.4631 8.94625 7.52872 9.12344 7.64357 9.26453L11.9781 14.4948C12.362 14.9575 12.28 15.6564 11.7517 15.9419C10.6328 16.5522 9.34982 16.9 7.9881 16.9C3.64044 16.9 0.113098 13.3727 0.113098 9.025C0.113098 5.23516 2.78732 2.07203 6.35404 1.32063ZM14.7278 9.55H16.8278C17.4348 9.55 17.9204 10.0652 17.7958 10.6591C17.4611 12.2472 16.6473 13.6581 15.512 14.7344C15.1084 15.1183 14.4751 15.0363 14.1208 14.6064L11.3514 11.2694C10.7837 10.5836 11.2726 9.55 12.1586 9.55H14.7245H14.7278Z" fill="white"/>
</svg>
