<svg width="14" height="19" viewBox="0 0 14 19" fill="none" xmlns="http://www.w3.org/2000/svg">
<path d="M0.400024 3.5C0.400024 1.67812 1.87815 0.199997 3.70002 0.199997H10.3C12.1219 0.199997 13.6 1.67812 13.6 3.5V12.3C13.6 13.6784 12.7544 14.8609 11.5547 15.3525L13.4075 17.5422C13.7031 17.8894 13.6585 18.4119 13.3113 18.7041C12.9641 18.9962 12.4416 18.955 12.1494 18.6078L9.60565 15.6H4.40471L1.86096 18.6078C1.56534 18.955 1.04627 18.9997 0.699087 18.7041C0.351899 18.4084 0.307212 17.8894 0.602837 17.5422L2.45565 15.3525C1.24565 14.8609 0.400024 13.6784 0.400024 12.3V3.5ZM2.60002 4.6V7.9C2.60002 8.50843 3.09159 9 3.70002 9H10.3C10.9085 9 11.4 8.50843 11.4 7.9V4.6C11.4 3.99156 10.9085 3.5 10.3 3.5H3.70002C3.09159 3.5 2.60002 3.99156 2.60002 4.6ZM7.00002 13.4C7.60846 13.4 8.10002 12.9084 8.10002 12.3C8.10002 11.6916 7.60846 11.2 7.00002 11.2C6.39159 11.2 5.90002 11.6916 5.90002 12.3C5.90002 12.9084 6.39159 13.4 7.00002 13.4Z" fill="white"/>
</svg>
