<svg width="21" height="18" viewBox="0 0 21 18" fill="none" xmlns="http://www.w3.org/2000/svg">
<path d="M10.5 7.45C12.3834 7.45 13.9125 5.92094 13.9125 4.0375C13.9125 2.15406 12.3834 0.625 10.5 0.625C8.61656 0.625 7.0875 2.15406 7.0875 4.0375C7.0875 5.92094 8.61656 7.45 10.5 7.45ZM3.15 7.7125C4.45594 7.7125 5.5125 6.65594 5.5125 5.35C5.5125 4.04406 4.45594 2.9875 3.15 2.9875C1.84406 2.9875 0.7875 4.04406 0.7875 5.35C0.7875 6.65594 1.84406 7.7125 3.15 7.7125ZM0 13.75V14.8C0 15.3808 0.469219 15.85 1.05 15.85H3.89484C3.75375 15.5284 3.675 15.1741 3.675 14.8V14.275C3.675 12.5294 4.33125 10.9347 5.41078 9.72719C5.02687 9.61234 4.62 9.55 4.2 9.55C1.88016 9.55 0 11.4302 0 13.75ZM20.2125 5.35C20.2125 4.04406 19.1559 2.9875 17.85 2.9875C16.5441 2.9875 15.4875 4.04406 15.4875 5.35C15.4875 6.65594 16.5441 7.7125 17.85 7.7125C19.1559 7.7125 20.2125 6.65594 20.2125 5.35ZM5.25 14.275V14.8C5.25 15.3808 5.71922 15.85 6.3 15.85H11.445C11.212 15.1413 11.2383 14.3931 11.7961 13.75C11.3367 13.2184 11.1234 12.4473 11.422 11.673C11.6386 11.1119 11.9437 10.5869 12.3211 10.1209C12.4983 9.90438 12.7017 9.73703 12.9216 9.61563C12.1964 9.23828 11.3728 9.025 10.5 9.025C7.59937 9.025 5.25 11.3744 5.25 14.275ZM20.4947 12.828C20.7014 12.7098 20.8064 12.4638 20.7178 12.2373C20.5603 11.8305 20.3405 11.4466 20.0648 11.1086C19.9139 10.9216 19.6481 10.8888 19.4414 11.0102C18.7261 11.4236 17.8467 10.9183 17.8467 10.0881C17.8467 9.84859 17.6859 9.63531 17.4497 9.59922C17.0264 9.53359 16.5703 9.53359 16.147 9.59922C15.9108 9.63531 15.75 9.84859 15.75 10.0881C15.75 10.915 14.8706 11.4236 14.1553 11.0102C13.9486 10.892 13.6828 10.9248 13.5319 11.1086C13.2562 11.4466 13.0364 11.8305 12.8789 12.2373C12.7936 12.4605 12.8953 12.7066 13.102 12.8247C13.8206 13.2381 13.8206 14.252 13.102 14.6688C12.8953 14.7869 12.7903 15.033 12.8789 15.2561C13.0364 15.663 13.2562 16.0469 13.5319 16.3848C13.6828 16.5719 13.9486 16.6047 14.1553 16.4833C14.8706 16.0698 15.75 16.5784 15.75 17.4053C15.75 17.6448 15.9108 17.8581 16.147 17.8942C16.5703 17.9598 17.0264 17.9598 17.4497 17.8942C17.6859 17.8581 17.8467 17.6448 17.8467 17.4053C17.8467 16.5784 18.7261 16.0698 19.4414 16.4833C19.6481 16.6014 19.9139 16.5686 20.0648 16.3848C20.3405 16.0469 20.5603 15.663 20.7178 15.2561C20.8031 15.033 20.7014 14.7869 20.4947 14.6688C19.7761 14.2553 19.7761 13.2414 20.4947 12.8247V12.828ZM15.4875 13.75C15.4875 13.0248 16.0748 12.4375 16.8 12.4375C17.5252 12.4375 18.1125 13.0248 18.1125 13.75C18.1125 14.4752 17.5252 15.0625 16.8 15.0625C16.0748 15.0625 15.4875 14.4752 15.4875 13.75Z" fill="white"/>
</svg>
