<svg width="15" height="15" viewBox="0 0 15 15" fill="none" xmlns="http://www.w3.org/2000/svg">
<path d="M6.44998 3.3C6.44998 1.56094 5.03904 0.149998 3.29998 0.149998C1.56092 0.149998 0.149983 1.56094 0.149983 3.3C0.149983 5.03906 1.56092 6.45 3.29998 6.45C5.03904 6.45 6.44998 5.03906 6.44998 3.3ZM14.85 11.7C14.85 9.96094 13.439 8.55 11.7 8.55C9.96092 8.55 8.54998 9.96094 8.54998 11.7C8.54998 13.4391 9.96092 14.85 11.7 14.85C13.439 14.85 14.85 13.4391 14.85 11.7ZM14.5415 1.94156C14.9517 1.5314 14.9517 0.865311 14.5415 0.455154C14.1314 0.0449982 13.4653 0.0449982 13.0551 0.455154L0.455139 13.0552C0.0449829 13.4653 0.0449829 14.1314 0.455139 14.5416C0.865295 14.9517 1.53139 14.9517 1.94155 14.5416L14.5415 1.94156Z" fill="white"/>
</svg>
